<?xml version="1.0" encoding="UTF-8" standalone="no"?>
<svg
   xmlns:dc="http://purl.org/dc/elements/1.1/"
   xmlns:cc="http://creativecommons.org/ns#"
   xmlns:rdf="http://www.w3.org/1999/02/22-rdf-syntax-ns#"
   xmlns:svg="http://www.w3.org/2000/svg"
   xmlns="http://www.w3.org/2000/svg"
   xmlns:sodipodi="http://sodipodi.sourceforge.net/DTD/sodipodi-0.dtd"
   xmlns:inkscape="http://www.inkscape.org/namespaces/inkscape"
   version="1.1"
   id="svg2"
   width="192"
   height="24"
   viewBox="0 0 192 24"
   sodipodi:docname="bottom_d3dfdf.svg"
   inkscape:version="1.0 (b51213c273, 2020-08-10)">
  <metadata
     id="metadata8">
    <rdf:RDF>
      <cc:Work
         rdf:about="">
        <dc:format>image/svg+xml</dc:format>
        <dc:type
           rdf:resource="http://purl.org/dc/dcmitype/StillImage" />
        <dc:title></dc:title>
      </cc:Work>
    </rdf:RDF>
  </metadata>
  <defs
     id="defs6" />
  <sodipodi:namedview
     pagecolor="#ffffff"
     bordercolor="#666666"
     borderopacity="1"
     objecttolerance="10"
     gridtolerance="10"
     guidetolerance="10"
     inkscape:pageopacity="0"
     inkscape:pageshadow="2"
     inkscape:window-width="960"
     inkscape:window-height="1016"
     id="namedview4"
     showgrid="false"
     inkscape:zoom="7.2760417"
     inkscape:cx="23.61131"
     inkscape:cy="15.151396"
     inkscape:window-x="26"
     inkscape:window-y="23"
     inkscape:window-maximized="0"
     inkscape:current-layer="g10"
     inkscape:document-rotation="0" />
  <g
     inkscape:groupmode="layer"
     inkscape:label="Image"
     id="g10">
    <path
       style="fill:#d3dfdf;stroke-width:0.12;fill-opacity:1"
       d="M 111.54,23.558442 C 101.96765,23.272998 92.380351,21.667363 71.16,16.795792 50.237642,11.99263 46.01864,11.18537 36.420918,10.148843 29.483554,9.399628 25.855033,9.186364 21.6,9.277752 13.764797,9.446034 7.8456697,10.367736 1.794687,12.361751 0.996482,12.624788 0.266139,12.84 0.171703,12.84 0.024905,12.84 0,11.908785 0,6.42 V 0 h 96 96 v 0.477234 c 0,0.364486 -0.0638,0.517438 -0.27,0.647409 -0.1485,0.0936 -1.242,0.363433 -2.43,0.599637 -3.61669,0.719088 -6.39601,1.533682 -10.9623,3.212949 -4.24585,1.561429 -6.78156,2.640091 -13.2177,5.622653 -8.07463,3.741854 -10.23722,4.644222 -16.14,6.734607 -7.7792,2.754895 -14.44609,4.515857 -20.38553,5.384545 -5.19194,0.75936 -11.01351,1.059547 -17.05447,0.879408 z"
       id="path38" />
  </g>
</svg>
