<?xml version="1.0" encoding="UTF-8" standalone="no"?>
<svg
   xmlns:dc="http://purl.org/dc/elements/1.1/"
   xmlns:cc="http://creativecommons.org/ns#"
   xmlns:rdf="http://www.w3.org/1999/02/22-rdf-syntax-ns#"
   xmlns:svg="http://www.w3.org/2000/svg"
   xmlns="http://www.w3.org/2000/svg"
   xmlns:sodipodi="http://sodipodi.sourceforge.net/DTD/sodipodi-0.dtd"
   xmlns:inkscape="http://www.inkscape.org/namespaces/inkscape"
   version="1.1"
   id="svg2"
   width="192"
   height="36"
   viewBox="0 0 192 36"
   sodipodi:docname="home_mid_orange.svg"
   inkscape:version="1.0 (b51213c273, 2020-08-10)">
  <metadata
     id="metadata8">
    <rdf:RDF>
      <cc:Work
         rdf:about="">
        <dc:format>image/svg+xml</dc:format>
        <dc:type
           rdf:resource="http://purl.org/dc/dcmitype/StillImage" />
        <dc:title></dc:title>
      </cc:Work>
    </rdf:RDF>
  </metadata>
  <defs
     id="defs6" />
  <sodipodi:namedview
     pagecolor="#ffffff"
     bordercolor="#666666"
     borderopacity="1"
     objecttolerance="10"
     gridtolerance="10"
     guidetolerance="10"
     inkscape:pageopacity="0"
     inkscape:pageshadow="2"
     inkscape:window-width="1920"
     inkscape:window-height="1016"
     id="namedview4"
     showgrid="false"
     inkscape:zoom="5.1449384"
     inkscape:cx="103.83458"
     inkscape:cy="9.4428935"
     inkscape:window-x="0"
     inkscape:window-y="0"
     inkscape:window-maximized="1"
     inkscape:current-layer="g10" />
  <g
     inkscape:groupmode="layer"
     inkscape:label="Image"
     id="g10">
    <path
       style="fill:#faac86;stroke-width:0.12"
       d="m 136.68,32.028748 c -5.32116,-0.458588 -10.84,-1.794204 -16.44,-3.97866 -3.97905,-1.552151 -9.43716,-4.22292 -16.14,-7.897644 C 88.206607,11.43915 83.100473,8.985371 75.78,6.543121 68.727888,4.190402 62.334012,3.122032 55.297231,3.120602 49.792012,3.119502 44.102764,3.887909 38.82,5.346119 30.437162,7.660048 22.332221,11.161509 10.44,17.606723 8.361,18.733476 5.1615,20.466006 3.33,21.45679 L 0,23.258214 V 11.629107 0 h 96 96 v 6.647954 6.647955 l -0.93,0.205115 c -2.33485,0.514958 -5.30279,1.57953 -8.79,3.152883 -1.023,0.461555 -6.558,3.182106 -12.3,6.045669 -12.08282,6.02576 -14.5317,7.099149 -18.54,8.126437 -4.21441,1.080113 -10.36622,1.581398 -14.76,1.202735 z"
       id="path837" />
  </g>
</svg>
