<?xml version="1.0" encoding="UTF-8" standalone="no"?>
<svg
   xmlns:dc="http://purl.org/dc/elements/1.1/"
   xmlns:cc="http://creativecommons.org/ns#"
   xmlns:rdf="http://www.w3.org/1999/02/22-rdf-syntax-ns#"
   xmlns:svg="http://www.w3.org/2000/svg"
   xmlns="http://www.w3.org/2000/svg"
   xmlns:sodipodi="http://sodipodi.sourceforge.net/DTD/sodipodi-0.dtd"
   xmlns:inkscape="http://www.inkscape.org/namespaces/inkscape"
   version="1.1"
   id="svg2"
   width="80"
   height="29.92"
   viewBox="0 0 80 29.92"
   sodipodi:docname="logo_transparent.svg"
   inkscape:version="1.0 (b51213c273, 2020-08-10)">
  <metadata
     id="metadata8">
    <rdf:RDF>
      <cc:Work
         rdf:about="">
        <dc:format>image/svg+xml</dc:format>
        <dc:type
           rdf:resource="http://purl.org/dc/dcmitype/StillImage" />
        <dc:title></dc:title>
      </cc:Work>
    </rdf:RDF>
  </metadata>
  <defs
     id="defs6" />
  <sodipodi:namedview
     pagecolor="#ffffff"
     bordercolor="#666666"
     borderopacity="1"
     objecttolerance="10"
     gridtolerance="10"
     guidetolerance="10"
     inkscape:pageopacity="0"
     inkscape:pageshadow="2"
     inkscape:window-width="1920"
     inkscape:window-height="1016"
     id="namedview4"
     showgrid="false"
     inkscape:zoom="17.4625"
     inkscape:cx="41.654977"
     inkscape:cy="10.672885"
     inkscape:window-x="0"
     inkscape:window-y="0"
     inkscape:window-maximized="1"
     inkscape:current-layer="g10" />
  <g
     inkscape:groupmode="layer"
     inkscape:label="Image"
     id="g10">
    <path
       style="fill:#000000;stroke-width:0.016"
       d="m 40.033283,27.084125 c -0.206582,-0.01591 -0.380451,-0.0636 -0.569558,-0.156227 -0.284592,-0.139391 -0.429155,-0.283997 -0.568058,-0.568234 -0.0923,-0.188883 -0.122083,-0.297195 -0.145988,-0.531 -0.03675,-0.35939 0.01737,-0.667819 0.17208,-0.980734 0.07956,-0.160912 0.108025,-0.20092 0.229182,-0.322077 0.116006,-0.116007 0.162757,-0.150151 0.289563,-0.211483 0.272754,-0.131924 0.565563,-0.180045 0.880706,-0.144738 0.395987,0.04437 0.640859,0.165051 0.80684,0.397653 0.07311,0.102457 0.153533,0.282317 0.172854,0.386585 l 0.0093,0.05021 -0.1579,0.03959 -0.157899,0.0396 -0.03377,-0.09262 c -0.124184,-0.340597 -0.4039,-0.516962 -0.81691,-0.51508 -0.423666,0.0019 -0.734427,0.185664 -0.900115,0.532176 -0.107178,0.224144 -0.13205,0.344072 -0.131058,0.631918 9.76e-4,0.282045 0.02443,0.397792 0.121213,0.597955 0.122626,0.253623 0.367715,0.441096 0.662352,0.506647 0.189422,0.04214 0.504294,0.02688 0.663608,-0.03216 0.171709,-0.06364 0.353475,-0.158181 0.4,-0.208048 0.0388,-0.04158 0.04015,-0.05079 0.04508,-0.305632 l 0.0051,-0.262762 h -0.425077 -0.425077 v -0.168 -0.168 h 0.6 0.6 l -2.4e-4,0.508 c -1.76e-4,0.371045 -0.0056,0.518514 -0.02,0.546998 -0.01087,0.02145 -0.06656,0.07062 -0.123765,0.109266 -0.355278,0.24004 -0.768923,0.352051 -1.182441,0.320197 z m -12.219276,-0.01387 c -0.137543,-0.02301 -0.32898,-0.09064 -0.436445,-0.15418 -0.146043,-0.08636 -0.308079,-0.242695 -0.408216,-0.393863 -0.165603,-0.249995 -0.231299,-0.465325 -0.244853,-0.802547 -0.01087,-0.270374 0.01118,-0.457949 0.07709,-0.656 0.121983,-0.366501 0.326436,-0.609749 0.645658,-0.768174 0.202398,-0.100448 0.328958,-0.125464 0.64048,-0.126596 0.21963,-8e-4 0.27371,0.0042 0.380664,0.03505 0.605046,0.17464 0.956494,0.693999 0.96072,1.419717 0.0014,0.245555 -0.02199,0.39405 -0.09414,0.596813 -0.159516,0.448328 -0.501896,0.744363 -0.975246,0.843237 -0.121206,0.02532 -0.412586,0.02881 -0.545718,0.0065 z m 0.536228,-0.327227 c 0.149452,-0.03523 0.281287,-0.112341 0.409229,-0.239363 0.127133,-0.126221 0.196045,-0.249714 0.25141,-0.450528 0.02982,-0.108173 0.03469,-0.16849 0.03531,-0.437472 6.88e-4,-0.300234 -9.76e-4,-0.31713 -0.04433,-0.448 -0.119157,-0.359725 -0.340261,-0.58292 -0.657495,-0.663714 -0.12638,-0.03219 -0.420352,-0.03199 -0.544579,3.68e-4 -0.299101,0.07791 -0.547945,0.310783 -0.638539,0.597564 -0.07799,0.246886 -0.09519,0.711569 -0.03471,0.93778 0.08952,0.33481 0.357757,0.620836 0.66019,0.703973 0.107845,0.02965 0.436663,0.02929 0.563507,-6.08e-4 z m 7.239772,0.327227 c -0.424848,-0.07107 -0.753463,-0.325704 -0.949487,-0.735736 -0.0944,-0.197454 -0.129433,-0.351299 -0.140027,-0.614854 -0.01087,-0.270374 0.01118,-0.457949 0.07709,-0.656 0.121983,-0.366501 0.326436,-0.609749 0.645658,-0.768174 0.202398,-0.100448 0.328958,-0.125464 0.64048,-0.126596 0.21963,-8e-4 0.27371,0.0042 0.380664,0.03505 0.605046,0.17464 0.956494,0.693999 0.96072,1.419717 0.0014,0.245555 -0.02199,0.39405 -0.09414,0.596813 -0.159201,0.44744 -0.502835,0.744558 -0.975246,0.843237 -0.121206,0.02532 -0.412586,0.02881 -0.545718,0.0065 z m 0.536228,-0.327227 c 0.149452,-0.03523 0.281287,-0.112341 0.409229,-0.239363 0.199685,-0.198253 0.27785,-0.41717 0.291912,-0.817558 0.0156,-0.444176 -0.07474,-0.724364 -0.308851,-0.957864 -0.174718,-0.174264 -0.375258,-0.248578 -0.6708,-0.248578 -0.209786,0 -0.322978,0.02575 -0.475626,0.108198 -0.300134,0.162109 -0.446227,0.40018 -0.493126,0.803584 -0.02336,0.200976 -0.01193,0.515455 0.02357,0.648218 0.08952,0.33481 0.357757,0.620835 0.66019,0.703973 0.107845,0.02965 0.436663,0.02929 0.563507,-6.08e-4 z m -17.07051,-1.119363 v -1.432 l 0.5,5.28e-4 c 0.840947,8.8e-4 1.071413,0.0242 1.280035,0.129512 0.301242,0.152066 0.447688,0.544051 0.348359,0.932427 -0.08415,0.329011 -0.29324,0.526691 -0.617487,0.583786 -0.176144,0.03101 -0.477123,0.04942 -0.810907,0.04958 l -0.332,1.6e-4 v 0.584 0.584 h -0.184 -0.184 v -1.432 z m 1.528958,-0.136 c 0.180506,-0.09221 0.263794,-0.23915 0.262376,-0.462904 -0.0012,-0.193285 -0.09152,-0.359037 -0.240305,-0.441096 l -0.08703,-0.048 -0.548,-0.0048 -0.548,-0.0048 v 0.513772 0.513772 l 0.525667,-0.005 0.525667,-0.005 z m 2.247042,0.136 v -1.432 h 0.184 0.184 v 0.592 0.592 h 0.752 0.752 v -0.592 -0.592 h 0.184 0.184 v 1.432 1.432 h -0.184 -0.184 v -0.672 -0.672 h -0.752 -0.752 v 0.672 0.672 h -0.184 -0.184 z m 8.944,0.168 v -1.264 h -0.472 -0.472 v -0.168 -0.168 h 1.128 1.128 v 0.168 0.168 h -0.472 -0.472 v 1.264 1.264 h -0.184 -0.184 z m 11.28,-0.16971 v -1.433711 l 0.724,0.0084 c 0.934845,0.0109 1.067219,0.02719 1.248261,0.153671 0.351793,0.245774 0.399902,0.840579 0.09283,1.147656 -0.10551,0.10551 -0.203147,0.156533 -0.394862,0.206344 -0.08702,0.02261 -0.168704,0.04465 -0.181511,0.04897 -0.01464,0.0049 0.0091,0.02617 0.064,0.05715 0.128973,0.07284 0.216234,0.148801 0.317925,0.276771 0.08134,0.102353 0.62536,0.936912 0.62536,0.959333 0,0.01574 -0.379928,0.0098 -0.423096,-0.0066 -0.02672,-0.01016 -0.07851,-0.07337 -0.147485,-0.18 -0.533923,-0.825403 -0.627654,-0.944278 -0.812373,-1.030293 -0.07692,-0.03582 -0.09796,-0.03775 -0.413046,-0.03789 l -0.332003,-9.1e-5 v 0.632 0.632 h -0.184 -0.184 z m 1.602787,-0.211168 c 0.18864,-0.07587 0.292551,-0.23042 0.292551,-0.435122 0,-0.198626 -0.08367,-0.330434 -0.26324,-0.414672 l -0.0881,-0.04133 -0.588,-0.0047 -0.588,-0.0047 v 0.473661 0.473659 l 0.572,-0.0051 c 0.552219,-0.0049 0.575139,-0.0064 0.662787,-0.04162 z m 2.503549,0.544878 c 0.606594,-1.581723 0.659885,-1.713896 0.699702,-1.735381 0.01868,-0.01008 0.110191,-0.02152 0.203359,-0.02542 l 0.169397,-0.0071 0.233574,0.581949 c 0.128466,0.32007 0.350093,0.866347 0.492502,1.213947 0.14241,0.3476 0.297069,0.731 0.343688,0.852 l 0.08476,0.22 h -0.204617 -0.204618 l -0.149161,-0.400333 c -0.08204,-0.220182 -0.162439,-0.414582 -0.178666,-0.432 -0.02833,-0.0304 -0.05209,-0.03167 -0.595571,-0.03167 -0.311338,0 -0.577723,0.0045 -0.591968,0.0099 -0.0376,0.01443 -0.0543,0.05386 -0.20081,0.474061 l -0.132496,0.38 H 46.935674 46.74021 Z m 1.365664,-0.0761 c 0,-0.02426 -0.48664,-1.367898 -0.495427,-1.367898 -0.0058,0 -0.04478,0.1098 -0.08669,0.244 -0.04191,0.1342 -0.147679,0.440957 -0.235042,0.681683 -0.08736,0.240725 -0.15884,0.440525 -0.15884,0.444 0,0.0035 0.2196,0.0063 0.488,0.0063 0.2684,0 0.488,-0.0036 0.488,-0.0081 z m 2.304,-0.2559 v -1.432 l 0.5,5.28e-4 c 0.840947,8.8e-4 1.071413,0.0242 1.280035,0.129512 0.253579,0.128006 0.393995,0.408958 0.374823,0.749963 -0.02354,0.418727 -0.258573,0.698391 -0.643951,0.76625 -0.176144,0.03101 -0.477123,0.04942 -0.810907,0.04958 l -0.332,1.6e-4 v 0.584 0.584 h -0.184 -0.184 v -1.432 z m 1.528958,-0.136 c 0.180506,-0.09221 0.263794,-0.23915 0.262376,-0.462904 -0.0012,-0.193285 -0.09152,-0.359037 -0.240305,-0.441096 l -0.08703,-0.048 -0.548,-0.0048 -0.548,-0.0048 v 0.513772 0.513772 l 0.525667,-0.005 0.525667,-0.005 z m 2.263042,0.136 v -1.432 h 0.184 0.184 v 0.592 0.592 h 0.752 0.752 v -0.592 -0.592 h 0.184 0.184 v 1.432 1.432 h -0.184 -0.184 v -0.672 -0.672 h -0.752 -0.752 v 0.672 0.672 h -0.184 -0.184 z m 4.8,0.834696 V 25.861058 L 59.250826,25.59036 c -0.0951,-0.148883 -0.28105,-0.432696 -0.413234,-0.630696 -0.256758,-0.384598 -0.485867,-0.742122 -0.485867,-0.758192 0,-0.01906 0.35927,-0.0097 0.4,0.01043 0.05518,0.02726 0.647574,0.925323 0.791008,1.199151 0.04307,0.08222 0.07444,0.124164 0.09299,0.124344 0.0154,1.6e-4 0.028,-0.0072 0.028,-0.01643 0,-0.05309 0.771966,-1.238929 0.842802,-1.294646 0.03626,-0.02852 0.06452,-0.03266 0.223356,-0.03266 0.100013,0 0.181842,0.0038 0.181842,0.0085 0,0.01278 -0.226142,0.348184 -0.566043,0.839528 -0.16741,0.242 -0.360535,0.526395 -0.429168,0.63199 l -0.124787,0.191964 v 0.596011 0.59601 h -0.184 -0.184 z M 53.44676,23.256438 c -0.07688,-0.117339 -0.07757,-0.12742 -0.08657,-1.260385 l -0.0085,-1.067611 -0.312,0.186088 c -0.573438,0.342017 -1.117158,0.555718 -1.72,0.676017 -0.190571,0.03803 -0.749739,0.10365 -1.096,0.128619 -0.534902,0.03857 -1.15884,-0.04393 -1.704,-0.225332 -0.91007,-0.302821 -1.730651,-0.957807 -2.316253,-1.848828 -0.328912,-0.500459 -0.523403,-0.92619 -0.68391,-1.497051 -0.0353,-0.12556 -0.06776,-0.238003 -0.07212,-0.249873 -0.0047,-0.01271 -0.06848,0.05966 -0.155195,0.176 -0.08099,0.10867 -0.251576,0.304096 -0.379069,0.434278 l -0.231803,0.236694 0.01947,0.491306 c 0.01071,0.270218 0.02602,0.602904 0.03403,0.739304 0.06787,1.155979 0.0572,1.375645 -0.07268,1.496011 -0.0733,0.06794 -0.144633,0.04923 -0.196758,-0.0516 -0.04297,-0.08312 -0.05132,-0.313114 -0.05002,-1.378592 l 0.0013,-1.094176 -0.04451,0.02947 c -0.529272,0.350435 -1.093915,0.581598 -1.756512,0.719109 -0.1056,0.02191 -0.3864,0.06257 -0.624,0.09034 -0.418521,0.04892 -0.452966,0.05051 -1.104,0.05082 -0.934481,4.64e-4 -1.510411,-0.04789 -2.192,-0.184013 -1.55257,-0.310059 -2.843677,-0.981111 -3.933786,-2.044583 -0.951154,-0.927914 -1.601861,-2.028883 -1.914024,-3.238451 -0.121514,-0.47084 -0.17313,-0.812697 -0.210291,-1.392769 -0.01537,-0.239823 -0.0152,-0.370089 8.16e-4,-0.629232 0.0111,-0.179739 0.01774,-0.329206 0.01475,-0.33215 -0.003,-0.0029 -0.120635,0.132611 -0.261435,0.301232 -0.406945,0.487355 -1.012611,1.081412 -1.6,1.569333 -0.195997,0.162806 -0.845653,0.656253 -1.174613,0.892178 l -0.149094,0.106928 0.05385,0.0087 c 0.02962,0.0048 0.201453,0.02351 0.381853,0.04165 0.873293,0.08782 1.504864,0.241084 2.086231,0.50627 0.08703,0.0397 0.259827,0.107987 0.384,0.151756 0.419732,0.14795 0.65568,0.27924 0.869267,0.483694 0.136057,0.13024 0.210331,0.240389 0.273936,0.406251 0.03904,0.1018 0.04134,0.124063 0.04093,0.395866 -3.84e-4,0.249894 -0.0061,0.314795 -0.04319,0.490515 -0.07642,0.361983 -0.173531,0.620733 -0.337544,0.899415 -0.432085,0.734174 -1.211822,1.347824 -2.305629,1.814518 -0.242422,0.103434 -0.943131,0.33945 -1.24,0.417661 -0.429657,0.113197 -0.943525,0.199185 -1.512,0.253016 -0.233697,0.02213 -0.440904,0.02848 -0.896,0.02745 -0.536457,-0.0012 -0.625776,-0.0054 -0.952,-0.04416 -0.545661,-0.06492 -0.92808,-0.134494 -1.105142,-0.201062 -0.04903,-0.01843 -0.139027,-0.06712 -0.2,-0.108188 -0.09582,-0.06455 -0.137266,-0.08065 -0.305563,-0.118764 -0.407874,-0.09236 -0.633037,-0.234842 -0.757368,-0.479239 -0.185058,-0.363766 -0.125828,-0.790331 0.145246,-1.046049 0.162258,-0.153064 0.328883,-0.221604 0.626827,-0.257832 l 0.076,-0.0092 v -0.195021 c 0,-0.231597 0.02209,-0.637405 0.06487,-1.188918 0.01715,-0.221043 0.03118,-0.416538 0.03118,-0.434429 0,-0.02809 -0.01365,-0.03399 -0.1,-0.04327 -0.229824,-0.02468 -0.412056,-0.08885 -0.566642,-0.199551 -0.04985,-0.0357 -0.0935,-0.06204 -0.097,-0.05854 -0.0035,0.0035 -0.0198,0.07011 -0.03622,0.148025 -0.07034,0.333756 -0.21676,0.738092 -0.378662,1.045666 -0.192522,0.365744 -0.416051,0.663805 -0.731736,0.975714 l -0.169744,0.167715 v 0.211958 c 0,0.116578 0.0071,0.318307 0.01583,0.448287 0.03025,0.451593 0.06373,1.198139 0.06764,1.508326 0.0034,0.26645 -4.48e-4,0.326717 -0.0261,0.412808 -0.06283,0.210872 -0.198083,0.261488 -0.279184,0.104477 -0.04588,-0.08882 -0.05321,-0.286666 -0.05083,-1.371707 l 0.0024,-1.102423 -0.03689,0.02416 c -0.5542,0.363031 -1.020955,0.5577 -1.697555,0.708 -0.27961,0.06211 -0.913173,0.136066 -1.331333,0.155399 -0.42093,0.01946 -1.265587,-0.0019 -1.704,-0.04318 -2.211981,-0.208066 -4.015901,-1.116947 -5.368218,-2.704707 -0.105479,-0.123843 -0.240867,-0.288359 -0.300861,-0.365586 -0.05999,-0.07723 -0.112627,-0.13687 -0.116961,-0.132536 -0.0043,0.0043 0.04259,0.19765 0.10427,0.429587 0.495665,1.863772 0.999619,2.934402 1.589763,3.377384 0.07577,0.05687 0.196482,0.12232 0.348008,0.188679 0.264794,0.11596 0.413702,0.205477 0.53993,0.324582 0.320078,0.302015 0.407613,0.736712 0.226431,1.124456 -0.08485,0.181591 -0.270211,0.325466 -0.496167,0.385125 -0.116932,0.03087 -0.54766,0.03505 -0.742194,0.0072 -0.08229,-0.01178 -0.157999,-0.01035 -0.28538,0.0054 -0.177784,0.02198 -0.394693,0.01402 -0.64262,-0.02357 -0.376379,-0.05707 -0.74796,-0.209925 -1.08,-0.444262 -0.191975,-0.135603 -0.531484,-0.473979 -0.685632,-0.68347 -0.655479,-0.890743 -1.1076012,-2.190237 -1.4167516,-4.071901 -0.073898,-0.449786 -0.2099427,-1.457319 -0.2419694,-1.792 -0.013895,-0.1452 -0.028882,-0.28116 -0.033306,-0.302133 -0.00676,-0.03203 -0.033072,-1.6e-5 -0.1644013,0.2 -0.1878079,0.286031 -0.3348434,0.435425 -0.5161439,0.524424 -0.1469353,0.07213 -0.240938,0.0899 -0.4123744,0.07796 l -0.1345569,-0.0094 0.011046,0.142557 c 0.020399,0.263269 0.052656,0.90349 0.091828,1.822557 0.019442,0.456147 0.012136,0.782093 -0.019674,0.87776 -0.03181,0.09567 -0.097733,0.15743 -0.1614938,0.151298 -0.044462,-0.0043 -0.058061,-0.01619 -0.087969,-0.07706 -0.066808,-0.135933 -0.07178,-0.274289 -0.059536,-1.656744 0.011766,-1.328509 0.010423,-1.367219 -0.047437,-1.367219 -0.011673,0 -0.069667,0.02197 -0.1288746,0.04881 -0.5566451,0.252395 -1.1521771,-0.119501 -1.926716,-1.203189 -0.067133,-0.09393 -0.1248064,-0.168071 -0.1281637,-0.164763 -0.00336,0.0033 -0.016373,0.07647 -0.028923,0.162578 -0.036959,0.253581 -0.1450003,0.773464 -0.2286925,1.100449 -0.404959,1.582173 -0.9973065,2.440759 -1.942172,2.815106 -0.172487,0.06834 -0.4277541,0.118978 -0.7011555,0.139093 -0.2235301,0.01645 -0.2675888,0.01536 -0.4019616,-0.0099 -0.1445107,-0.0272 -0.1606286,-0.0272 -0.3798499,0 -0.3953466,0.04898 -0.6808466,0.01502 -0.86706177,-0.103129 -0.1784345,-0.113249 -0.3310109,-0.304492 -0.3964958,-0.49701 -0.044034,-0.129456 -0.058162,-0.342055 -0.032529,-0.489504 0.063841,-0.36724 0.3838982,-0.634048 0.80440907,-0.670576 0.2632693,-0.02287 0.374653,-0.06324 0.5465881,-0.198095 0.5089381,-0.399188 0.8965333,-1.561238 1.1293224,-3.385825 0.047119,-0.369318 0.1407923,-1.360936 0.1594566,-1.688 0.00879,-0.154 0.02725,-0.478 0.041027,-0.72 C 3.1966375,10.203136 3.2892442,9.0871925 3.3367377,8.8077093 3.3724777,8.5973887 3.4477146,8.3187367 3.4974724,8.2123991 3.5569334,8.0853245 3.7339505,7.9121632 3.8751911,7.8429077 4.1316822,7.7171402 4.340643,7.720668 4.6487257,7.8559677 l 0.081035,0.035588 0.134419,-0.059101 c 0.1858938,-0.081733 0.3467585,-0.1025764 0.5195111,-0.067314 0.313377,0.063966 0.5393525,0.2589565 0.6419259,0.5539064 0.032576,0.093671 0.041428,0.1617391 0.054649,0.4202199 0.046401,0.9071651 0.197568,1.559299 0.5703384,2.460443 0.2882713,0.696874 0.7305155,1.463511 0.9861891,1.709572 l 0.055664,0.05357 0.00871,-0.04557 c 0.027687,-0.144906 0.09116,-1.3257 0.090741,-1.688065 -2.704e-4,-0.233626 0.039491,-0.711104 0.080936,-0.971953 0.065164,-0.410141 0.1674714,-0.7176839 0.3028877,-0.9105098 0.2485523,-0.353926 0.6779007,-0.4852236 1.1042333,-0.3376823 0.1060106,0.036687 0.1197221,0.035956 0.3117256,-0.016627 0.2525686,-0.069169 0.5734552,-0.044222 0.7656642,0.059528 0.178001,0.096081 0.350482,0.3313115 0.401012,0.5469049 0.01351,0.057658 0.06164,0.4036322 0.10695,0.7688322 0.04531,0.3652 0.08759,0.669748 0.09395,0.676774 0.0064,0.007 0.0318,-0.04337 0.05653,-0.112 0.08645,-0.239939 0.248447,-0.606505 0.343835,-0.778035 0.949275,-1.7070593 2.673869,-2.7492225 4.928059,-2.978045 0.70801,-0.07187 1.187312,-0.07242 1.42892,-0.0016 0.16572,0.04855 0.270552,0.09882 0.405355,0.194383 0.180512,0.1279621 0.382663,0.3880278 0.455517,0.5860218 0.08356,0.227092 0.06069,0.2092862 0.366208,0.2850478 0.736475,0.1826269 1.502571,0.5269899 2.168,0.9745259 0.0792,0.053266 0.160542,0.096863 0.180763,0.096881 0.0252,1.6e-5 0.09996,-0.060504 0.237738,-0.1924817 C 21.952464,8.7146851 22.521337,8.29452 23.193057,7.891004 24.70484,6.982846 26.262443,6.373615 28.023691,6.001582 29.067867,5.781018 30.251414,5.663575 30.96143,5.710071 c 0.577579,0.03782 0.913413,0.11765 1.319611,0.313668 0.115143,0.05556 0.261133,0.116447 0.324424,0.135296 0.169488,0.05048 0.453442,0.167664 0.566948,0.23398 0.614246,0.358875 0.933876,0.9648466 0.940606,1.7832418 0.0016,0.2002333 -0.0196,0.5946245 -0.04306,0.7994405 l -0.01008,0.088 0.141909,-0.1375939 c 0.283341,-0.2747336 0.524977,-0.4721876 0.813903,-0.6650892 0.76645,-0.5117208 1.673437,-0.8548987 2.696971,-1.0204552 0.640608,-0.103619 1.634261,-0.147743 1.879029,-0.08344 0.250659,0.06585 0.517069,0.2319725 0.675522,0.4212268 0.09456,0.1129406 0.206848,0.2997627 0.237958,0.3959046 0.05355,0.1654899 0.06717,0.1836557 0.156389,0.2085981 0.685493,0.1916373 0.829142,0.2383147 1.170131,0.3802184 0.250218,0.1041293 0.641077,0.3021558 0.881035,0.4463713 1.221384,0.7340567 2.279941,1.9762388 2.863107,3.3597658 0.209303,0.49656 0.35661,1.016414 0.440015,1.552845 0.02785,0.179106 0.05415,0.336446 0.05844,0.349646 0.0046,0.01416 0.03639,-0.03275 0.07752,-0.11442 0.297757,-0.59124 0.716413,-1.055718 1.303877,-1.446588 0.510019,-0.339341 1.046301,-0.538413 1.61875,-0.600892 0.206029,-0.02249 0.695495,-0.0095 0.86925,0.02309 0.636219,0.119275 1.138094,0.350454 1.656,0.762802 0.418882,0.333508 0.549845,0.530108 0.570218,0.856009 0.0172,0.27523 -0.06142,0.494648 -0.252263,0.704007 -0.09949,0.109143 -0.109966,0.127062 -0.110077,0.188307 -5.6e-4,0.315791 -0.157134,0.595545 -0.422147,0.754273 -0.14759,0.0884 -0.246101,0.112473 -0.457731,0.111863 -0.29407,-8.48e-4 -0.391382,-0.04525 -0.755088,-0.344568 -0.410509,-0.33783 -0.732162,-0.461882 -1.1976,-0.461882 -0.524653,0 -0.99385,0.213317 -1.386469,0.63035 -0.189841,0.201646 -0.189,0.198629 -0.188006,0.67365 7.68e-4,0.37051 0.004,0.414814 0.04347,0.600934 0.130799,0.616424 0.433424,1.148359 0.919539,1.6163 0.222924,0.214588 0.421042,0.35452 0.700154,0.494521 0.419778,0.210559 0.733723,0.28597 1.248,0.299776 0.589886,0.01584 1.091456,-0.06545 1.56,-0.252829 0.260862,-0.104321 0.440734,-0.207772 0.687136,-0.3952 0.23141,-0.176022 0.316528,-0.218211 0.507408,-0.251499 0.412568,-0.07194 0.734376,0.01401 0.982909,0.262544 0.196869,0.196869 0.291005,0.429299 0.292197,0.721453 9.76e-4,0.238714 -0.06837,0.421955 -0.259386,0.685402 -0.07368,0.101622 -0.09912,0.151172 -0.106776,0.208 -0.03063,0.227313 -0.113686,0.426529 -0.241563,0.579414 -0.109429,0.130827 -0.114282,0.150181 -0.100077,0.399184 0.08596,1.506982 0.09463,2.002102 0.03789,2.163781 -0.04775,0.136056 -0.170378,0.199902 -0.224703,0.116993 z M 14.120336,22.137814 c 0.104187,-0.04852 0.208327,-0.166539 0.239464,-0.271392 0.03018,-0.101616 0.03008,-0.147004 -5.2e-4,-0.236804 -0.03505,-0.10288 -0.105882,-0.180557 -0.231564,-0.25396 -0.127103,-0.07423 -0.512051,-0.245266 -0.524348,-0.232968 -0.0046,0.0046 0.01253,0.03787 0.03802,0.07398 0.241625,0.342332 0.277817,0.53608 0.172416,0.922994 -0.0095,0.03497 -0.0064,0.03599 0.108059,0.03584 0.08985,-1.6e-4 0.137026,-0.0091 0.198476,-0.03769 z m 36.487389,-0.699646 c 0.855171,-0.08024 1.726763,-0.39015 2.448,-0.870438 0.131523,-0.08758 0.281747,-0.216066 0.25263,-0.216066 -0.0053,0 -0.05892,0.02238 -0.119139,0.04974 -0.616925,0.280241 -1.31324,0.455316 -2.417037,0.607721 l -0.476454,0.06579 -0.25377,-0.01814 c -1.122747,-0.08025 -2.035147,-0.49792 -2.80336,-1.283302 -0.519116,-0.530722 -0.892505,-1.123629 -1.163614,-1.84772 -0.0714,-0.19069 -0.173774,-0.520141 -0.1958,-0.630085 -0.0062,-0.0308 -0.015,-0.06237 -0.01962,-0.07016 -0.0125,-0.02108 -0.05062,0.05588 -0.05127,0.10352 -8.16e-4,0.05897 0.106258,0.692013 0.136426,0.806642 0.165373,0.628338 0.422832,1.164979 0.798322,1.664 0.173756,0.230918 0.548486,0.619451 0.768686,0.796998 0.842491,0.679303 1.8644,0.957063 3.096,0.841506 z M 13.164819,20.819664 c -0.319202,-0.374486 -0.393508,-0.473931 -0.544118,-0.728195 -0.497952,-0.840656 -0.926446,-2.184463 -1.371063,-4.299805 -0.06196,-0.2948 -0.137615,-0.6152 -0.168116,-0.712 -0.244468,-0.77587 -0.347828,-1.345274 -0.370307,-2.04 -0.01076,-0.332451 -0.01636,-0.384473 -0.175758,-1.632 -0.05678,-0.4444 -0.125314,-0.9988 -0.152295,-1.232 -0.02698,-0.2331995 -0.05628,-0.4514075 -0.06511,-0.4849062 -0.02089,-0.079289 -0.104174,-0.1701811 -0.201053,-0.2194317 -0.06024,-0.030626 -0.108136,-0.04056 -0.2172765,-0.045065 -0.077,-0.00318 -0.14,-9.68e-4 -0.14,0.00491 0,0.00588 0.017319,0.080397 0.038486,0.165592 0.021167,0.085195 0.054124,0.2916995 0.073237,0.4588999 0.019114,0.1672 0.087578,0.718 0.1521445,1.224 0.0971,0.76094 0.124438,0.938454 0.158149,1.026735 0.03379,0.08849 0.05599,0.233281 0.129833,0.846873 0.112521,0.934944 0.24393,1.712508 0.466171,2.758392 0.249621,1.174741 0.577323,2.339315 0.852507,3.02961 0.39584,0.99296 0.790129,1.554424 1.257465,1.790619 0.107225,0.05419 0.255906,0.113974 0.286488,0.115193 0.008,3.2e-4 0.0037,-0.01202 -0.0094,-0.02742 z m 11.460333,-0.989155 c 0.03115,-0.205565 0.07245,-0.305231 0.195125,-0.470845 0.05426,-0.07326 0.08321,-0.125869 0.0743,-0.135066 -0.02291,-0.02367 -0.29139,-0.0312 -0.355696,-0.01 -0.09294,0.03068 -0.176217,0.102117 -0.226452,0.194277 -0.03929,0.07208 -0.04741,0.105716 -0.04798,0.198766 -5.76e-4,0.09494 0.0065,0.12503 0.04669,0.197568 0.05635,0.101763 0.213445,0.219683 0.272053,0.204205 0.0085,-0.0022 0.02739,-0.08276 0.04196,-0.178928 z m 4.604563,-0.831435 c 0.287236,-0.05771 0.78761,-0.18525 1.067125,-0.271991 0.671133,-0.208269 1.219915,-0.481859 1.448883,-0.722328 0.162791,-0.170966 0.18729,-0.263081 0.103607,-0.389536 -0.04157,-0.06282 -0.185802,-0.168267 -0.251675,-0.184005 -0.0407,-0.0097 -0.04263,-0.0069 -0.05926,0.08756 -0.09558,0.542638 -0.737559,0.953837 -2.162666,1.385232 -0.2244,0.06793 -0.411,0.12624 -0.414667,0.129582 -0.01709,0.01558 0.08399,0.0026 0.268657,-0.03451 z m -1.88599,-0.127351 c 0.944901,-0.09954 1.812466,-0.312294 2.68797,-0.659166 0.469268,-0.185925 0.763371,-0.352287 0.925107,-0.523298 0.09397,-0.09935 0.130923,-0.172222 0.130923,-0.258133 0,-0.115798 -0.04507,-0.158582 -0.192,-0.18227 -0.219634,-0.03541 -1.001213,-0.09995 -1.376,-0.113626 -1.009814,-0.03685 -2.698613,0.0042 -2.761534,0.06711 -0.01284,0.01284 -0.0385,0.136848 -0.06241,0.301562 -0.02233,0.153869 -0.08368,0.526816 -0.136331,0.828773 -0.05265,0.301957 -0.09572,0.556889 -0.09572,0.566517 0,0.02329 0.565854,0.0056 0.88,-0.02747 z m -8.032,-0.542609 c 0.581154,-0.08071 1.070571,-0.258517 1.456,-0.528984 0.277608,-0.194807 0.582493,-0.529828 0.757581,-0.832466 0.617158,-1.066758 0.572027,-2.681575 -0.108853,-3.894703 -0.218626,-0.389526 -0.476925,-0.729147 -0.799002,-1.050553 -0.245872,-0.245358 -0.464288,-0.426272 -0.711156,-0.58905 -0.791466,-0.521867 -1.633824,-0.761458 -2.677783,-0.761639 -0.173366,-3.2e-5 -0.353366,-0.008 -0.4,-0.01781 -0.201523,-0.0422 -0.41928,-0.2092 -0.545141,-0.418079 -0.0825,-0.136924 -0.09255,-0.142926 -0.190471,-0.113845 -0.126886,0.03768 -0.586871,0.247474 -0.784673,0.357879 -0.802291,0.447805 -1.324803,0.967467 -1.660701,1.651641 -0.256239,0.521921 -0.367658,1.060898 -0.346499,1.676158 0.02053,0.597094 0.157155,1.133477 0.427606,1.678809 0.391384,0.78918 1.110551,1.567978 1.906066,2.064113 0.741347,0.462352 1.504908,0.708793 2.501026,0.807212 0.162738,0.01608 1.000878,-0.0044 1.176,-0.02868 z m 0.98329,-4.113104 c -0.0737,-0.07814 -0.101685,-0.178014 -0.119413,-0.426078 -0.02924,-0.409101 -0.09358,-0.659518 -0.242781,-0.944816 -0.328824,-0.628782 -1.011674,-1.112235 -1.780544,-1.260611 -0.09436,-0.01821 -0.280165,-0.04103 -0.412904,-0.05072 -0.213864,-0.01561 -0.286322,-0.01353 -0.636403,0.01826 -0.433898,0.0394 -0.516992,0.03564 -0.591167,-0.02678 -0.07948,-0.06687 -0.05221,-0.176069 0.06656,-0.266558 0.222042,-0.169171 1.121562,-0.253527 1.733896,-0.162604 0.580828,0.08624 1.158701,0.356085 1.658791,0.774578 0.371299,0.310717 0.647717,0.710761 0.756549,1.094914 0.167393,0.590855 -0.0066,1.306061 -0.3177,1.306061 -0.05051,0 -0.0724,-0.0106 -0.114884,-0.05565 z m 20.93671,4.113104 c 0.581234,-0.08072 1.070858,-0.258621 1.456,-0.529037 0.256526,-0.180112 0.555632,-0.498616 0.717611,-0.764149 0.654186,-1.072411 0.63032,-2.704004 -0.05763,-3.940264 -0.225805,-0.405771 -0.483717,-0.747401 -0.810252,-1.073256 -0.245872,-0.245358 -0.464288,-0.426272 -0.711156,-0.58905 -0.791466,-0.521867 -1.633824,-0.761458 -2.677783,-0.761639 -0.173366,-3.2e-5 -0.353366,-0.008 -0.4,-0.01781 -0.203353,-0.04258 -0.43867,-0.226409 -0.555984,-0.434333 -0.02858,-0.05065 -0.06336,-0.09847 -0.0773,-0.106271 -0.03683,-0.02061 -0.143985,0.01534 -0.444491,0.149147 -1.021862,0.455002 -1.708593,1.065276 -2.103211,1.869053 -0.25624,0.521921 -0.367658,1.060898 -0.346499,1.676158 0.01818,0.528554 0.126288,1.00431 0.341769,1.504 0.372613,0.86407 1.189492,1.762531 2.088762,2.297368 0.721581,0.429157 1.442818,0.653782 2.404168,0.748766 0.162738,0.01608 1.000878,-0.0044 1.176,-0.02868 z m 0.98329,-4.113104 c -0.0737,-0.07814 -0.101685,-0.178014 -0.119413,-0.426078 -0.02847,-0.398343 -0.07738,-0.599542 -0.215507,-0.886494 -0.316312,-0.65712 -1.013271,-1.165602 -1.807818,-1.318933 -0.09436,-0.01821 -0.279451,-0.04098 -0.411317,-0.0506 -0.211813,-0.01546 -0.285955,-0.01332 -0.636163,0.0183 -0.435464,0.03932 -0.518757,0.03554 -0.592995,-0.02693 -0.08042,-0.06767 -0.05221,-0.176009 0.07011,-0.269313 0.218568,-0.16671 1.122046,-0.250173 1.730345,-0.159849 0.580828,0.08624 1.158701,0.356085 1.658791,0.774578 0.371299,0.310717 0.647717,0.710761 0.756549,1.094914 0.167393,0.590855 -0.0066,1.306061 -0.3177,1.306061 -0.05051,0 -0.0724,-0.0106 -0.114884,-0.05565 z M 3.1055804,18.321778 c 0.2565969,-0.08828 0.5143021,-0.272783 0.7428493,-0.531834 0.4223084,-0.478675 0.8110873,-1.424478 1.0220014,-2.48628 0.065729,-0.330897 0.1853128,-1.126823 0.1851016,-1.231996 -1.44e-4,-0.07517 -0.00947,-0.111633 -0.042914,-0.168004 -0.023497,-0.0396 -0.1088192,-0.200716 -0.189605,-0.358036 -0.082806,-0.161253 -0.1518012,-0.278077 -0.1581568,-0.267794 -0.0062,0.01003 -0.03939,0.241676 -0.073756,0.514763 -0.2122328,1.686526 -0.4663756,2.741497 -0.8405267,3.489109 -0.1979568,0.395547 -0.3539317,0.627212 -0.591108,0.877958 -0.2018171,0.213363 -0.2016846,0.212965 -0.053886,0.162114 z M 13.156827,17.379664 C 12.853442,16.970845 12.792576,16.88239 12.634061,16.619947 12.213026,15.922867 11.935736,15.2103 11.792183,14.45653 c -0.04839,-0.254109 -0.112466,-0.917941 -0.112402,-1.164559 1.86e-4,-0.712791 0.172287,-1.532811 0.447157,-2.130594 0.356335,-0.774952 0.986712,-1.5106139 1.720788,-2.0081936 0.732805,-0.4967186 1.572192,-0.8174226 2.536,-0.9689287 0.0836,-0.013141 0.342799,-0.042023 0.575999,-0.064181 0.500451,-0.047552 0.880173,-0.052901 1.063528,-0.014982 0.06762,0.013985 0.126686,0.021692 0.131251,0.017128 0.0046,-0.00456 -0.01579,-0.053613 -0.04524,-0.1089957 -0.104445,-0.1964411 -0.292379,-0.3424185 -0.525539,-0.4082125 -0.21011,-0.05929 -1.083495,-0.024584 -1.703999,0.067712 -2.04344,0.3039477 -3.587945,1.4249085 -4.308426,3.1269415 -0.229513,0.542191 -0.387574,1.263917 -0.387574,1.769708 0,0.239683 0.170817,1.372933 0.336646,2.233408 0.05361,0.278196 0.0762,0.360025 0.14135,0.512 0.308893,0.720594 0.751378,1.384961 1.33411,2.003087 0.155272,0.164704 0.315398,0.310608 0.343949,0.3134 0.0022,2.24e-4 -0.0801,-0.113003 -0.182954,-0.251604 z m 21.906992,-0.016 c -0.354958,-0.475917 -0.564824,-0.805298 -0.767126,-1.204 -0.43313,-0.853621 -0.658029,-1.738457 -0.691938,-2.722348 -0.02142,-0.621617 0.09341,-1.347519 0.307664,-1.944857 0.282016,-0.786255 0.853482,-1.5602555 1.577514,-2.1366065 0.666947,-0.5309086 1.472792,-0.8955789 2.429792,-1.0995565 0.302758,-0.064531 0.490531,-0.09106 0.968,-0.1367614 0.492021,-0.047095 0.87247,-0.0523 1.055528,-0.014443 0.06762,0.013985 0.126686,0.021692 0.131251,0.017128 0.0046,-0.00456 -0.01579,-0.053613 -0.04524,-0.1089957 -0.104445,-0.196441 -0.292379,-0.3424184 -0.525539,-0.4082124 -0.21011,-0.05929 -1.083496,-0.024584 -1.704,0.067712 -0.535034,0.079583 -1.122704,0.242781 -1.590952,0.4418143 -0.967102,0.4110752 -1.741197,1.0487336 -2.295616,1.8910072 -0.13793,0.209543 -0.18137,0.291559 -0.318918,0.60212 -0.05651,0.1276 -0.131948,0.2968 -0.167632,0.376 -0.345741,0.767384 -0.43221,2.138589 -0.202096,3.204854 0.247857,1.148486 0.828515,2.219892 1.704953,3.145908 0.120266,0.127068 0.309272,0.297176 0.330251,0.297228 0.0022,5e-6 -0.08596,-0.12059 -0.195896,-0.267991 z M 24.655725,16.242568 c 0,-0.209451 0.06555,-0.37686 0.217877,-0.556419 0.0914,-0.107743 0.118123,-0.166438 0.118123,-0.259458 0,-0.06604 0.0065,-0.06776 -0.297088,0.07857 -0.259144,0.124914 -0.340698,0.197236 -0.382986,0.339639 -0.02981,0.100387 -0.02985,0.12901 -2.88e-4,0.228554 0.03069,0.103336 0.115428,0.200911 0.21954,0.252792 0.123166,0.06138 0.12482,0.06027 0.12482,-0.08368 z M 8.2924801,15.610056 c 0.2364985,-0.139849 0.4530264,-0.561995 0.6441616,-1.255865 l 0.054396,-0.197473 -0.024147,-0.298527 C 8.9536097,13.694001 8.9375617,13.538994 8.9312277,13.51373 L 8.9197127,13.4678 8.791719,13.56343 c -0.1934196,0.144522 -0.1957433,0.148112 -0.247458,0.38233 -0.067801,0.307074 -0.1071774,0.454226 -0.1878225,0.701904 -0.076905,0.236193 -0.2442191,0.638433 -0.3327632,0.8 -0.081943,0.149522 -0.08357,0.164359 -0.021117,0.192634 0.074055,0.03353 0.2052193,0.01985 0.2899221,-0.03024 z M 24.618573,15.034884 c 0.22128,-0.112628 0.407139,-0.217028 0.413021,-0.232 0.06128,-0.155975 0.05074,-2.141777 -0.0167,-3.14722 -0.04668,-0.695963 -0.165045,-1.7494441 -0.201184,-1.7906213 -0.01383,-0.015757 -0.303072,0.1445753 -0.52193,0.2893153 -0.09236,0.06108 -0.135064,0.09971 -0.142353,0.128754 -0.0105,0.04182 0.01174,0.822015 0.04467,1.567401 0.0197,0.445941 0.01203,0.815382 -0.01872,0.901151 -0.04674,0.130374 -0.143922,0.206112 -0.202464,0.157787 -0.05027,-0.0415 -0.08577,-0.155048 -0.102806,-0.328844 -0.0126,-0.128525 -0.01046,-0.423274 0.0083,-1.147619 0.0139,-0.536072 0.02289,-0.977058 0.01998,-0.979969 -0.0108,-0.0108 -0.157096,0.09613 -0.285846,0.208941 -0.184015,0.161234 -0.471975,0.465236 -0.507176,0.535431 -0.01607,0.03205 -0.02563,0.06907 -0.02124,0.08227 0.0044,0.0132 0.0835,0.156314 0.175785,0.318031 0.459461,0.805111 0.736634,1.595888 0.858733,2.449969 0.03313,0.231754 0.07299,0.78489 0.07303,1.013333 1.4e-5,0.104134 0.0055,0.186934 0.01229,0.184 0.0067,-0.0029 0.193309,-0.09748 0.414587,-0.210113 z m 26.461659,-0.0024 c 0.09765,-0.0408 0.165149,-0.105125 0.215008,-0.204904 0.05798,-0.116028 0.05979,-0.137222 0.01248,-0.145939 -0.0198,-0.0036 -0.0827,-0.01522 -0.139786,-0.02571 -0.185228,-0.03405 -0.269136,-0.08071 -0.583025,-0.324159 -0.470387,-0.364835 -0.753034,-0.476941 -1.198957,-0.475545 -0.396861,0.0012 -0.763784,0.126076 -1.119864,0.380996 -0.119035,0.08522 -0.228296,0.189851 -0.213597,0.204551 0.0037,0.0037 0.09595,-0.02488 0.204987,-0.06353 0.379008,-0.134359 0.618706,-0.168437 0.915767,-0.130194 0.559145,0.07198 0.941537,0.243964 1.354475,0.609178 0.142666,0.126178 0.173342,0.147552 0.252146,0.175677 0.07983,0.02849 0.231683,0.02828 0.300361,-4.14e-4 z M 27.008507,14.503268 c 0.08654,-0.04385 0.267226,-0.157969 0.847218,-0.535076 1.777958,-1.156018 3.072898,-2.407955 3.600085,-3.480528 0.19996,-0.406823 0.288097,-0.7286749 0.287678,-1.0505128 C 31.743216,9.2231605 31.716308,9.0938115 31.638376,8.931789 31.578786,8.8078928 31.39764,8.5953498 31.372805,8.620185 c -0.0079,0.00791 -0.0069,0.047987 0.0023,0.092706 0.06306,0.3064782 0.04127,0.6072526 -0.0741,1.0227739 -0.364692,1.3134661 -1.687058,2.7275531 -3.984511,4.2608791 -0.212992,0.142152 -0.394792,0.272534 -0.404,0.289737 -0.02191,0.04095 -0.02209,0.257383 -2.08e-4,0.257383 0.0091,0 0.05241,-0.01818 0.09625,-0.0404 z m 19.893786,-0.820787 c 0.593062,-0.426967 1.01273,-0.59975 1.737432,-0.715325 0.45081,-0.0719 0.50233,-0.08328 0.551342,-0.121834 0.12808,-0.100747 0.0985,-0.232702 -0.06628,-0.29563 -0.05812,-0.02219 -0.106301,-0.02517 -0.281589,-0.01738 -0.658801,0.02928 -1.226518,0.27967 -1.692176,0.746322 -0.192433,0.192844 -0.430683,0.497027 -0.389294,0.497027 0.0061,0 0.06938,-0.04193 0.140563,-0.09318 z M 27.195575,13.54974 c 0.861654,-0.575189 1.77059,-1.312241 2.34839,-1.904302 0.606557,-0.621527 1.019445,-1.21401 1.254739,-1.800514 C 30.907155,9.5745923 30.902011,9.4992005 30.764964,9.350525 30.62229,9.1957421 30.410572,9.0844976 30.08501,8.9932512 29.856789,8.9292872 29.693428,8.9009222 29.385389,8.8717754 c -0.139883,-0.013236 -0.264432,-0.032446 -0.276773,-0.042688 -0.03793,-0.031482 -0.01669,-0.082431 0.0499,-0.1197064 0.105763,-0.059197 0.247149,-0.077782 0.585203,-0.076926 0.260742,6.608e-4 0.33908,0.00665 0.476837,0.036473 0.222598,0.048188 0.38163,0.1093282 0.563163,0.2165099 0.14492,0.085565 0.152262,0.08808 0.157643,0.053986 0.02632,-0.1667376 -0.193352,-0.5647274 -0.353698,-0.640816 -0.109531,-0.051976 -0.775184,-0.089501 -1.067942,-0.060203 -0.504803,0.050518 -1.073358,0.1861024 -1.863378,0.4443634 -0.373288,0.1220297 -1.146366,0.400631 -1.166264,0.4202971 -0.0075,0.00742 0.01933,0.2138144 0.05969,0.4590414 0.0802,0.4872312 0.217808,1.6580542 0.257347,2.1895582 0.01375,0.1848 0.0319,0.4152 0.04034,0.512 0.0084,0.0968 0.02304,0.4136 0.03245,0.704 0.0094,0.2904 0.02103,0.580128 0.02581,0.64384 0.01034,0.137669 -0.01794,0.143694 0.28985,-0.06176 z M 7.3078884,13.275664 C 6.8613183,12.689778 6.6086849,12.270514 6.3510172,11.687664 5.896689,10.659964 5.6797485,9.7772586 5.6333757,8.7676645 5.6199337,8.4750063 5.6011337,8.4120835 5.5022906,8.3289123 5.4011252,8.2437873 5.3283324,8.2164171 5.20387,8.2167063 c -0.06372,1.44e-4 -0.1235354,0.00795 -0.1329221,0.017336 -0.012089,0.012089 -0.00712,0.056038 0.017049,0.1506853 0.025934,0.1015734 0.037422,0.2143579 0.047901,0.4702779 0.019978,0.4878928 0.068903,0.8176186 0.1947751,1.3126585 0.1545977,0.608016 0.3973696,1.223504 0.7005211,1.776 0.4287565,0.781412 0.8121598,1.216388 1.1925315,1.352942 0.1176179,0.04223 0.1299674,0.03915 0.084163,-0.02094 z m -3.6700885,0.01384 c 0.1114912,-0.04658 0.1724634,-0.223651 0.2182595,-0.633836 0.026536,-0.237673 0.02079,-1.476866 -0.00838,-1.80858 -0.013438,-0.15279 -0.031904,-0.305544 -0.041035,-0.339454 -0.018269,-0.06785 -0.074572,-0.13496 -0.095274,-0.113566 -0.02056,0.02125 -0.060409,0.192504 -0.078191,0.336041 -0.018895,0.152514 -0.087936,1.411319 -0.1135053,2.069495 l -0.017713,0.455937 0.034657,0.02806 c 0.04156,0.03365 0.035594,0.03331 0.1011864,0.0059 z m 8.7529361,-1.883965 c 0.02694,-0.01877 0.08499,-0.07742 0.12899,-0.130327 0.256261,-0.308164 0.44556,-0.516185 0.71044,-0.780705 0.331601,-0.331152 0.476399,-0.452976 0.76956,-0.6474625 0.436509,-0.2895861 0.829858,-0.4727882 1.648,-0.7675552 0.525421,-0.189303 0.64,-0.2469763 0.64,-0.3221451 0,-0.023033 -0.01993,-0.060074 -0.04677,-0.08691 -0.04433,-0.044328 -0.05384,-0.04677 -0.182238,-0.04677 -0.306816,0 -0.79364,0.1428779 -1.228255,0.3604797 -0.922604,0.4619272 -1.757009,1.1337241 -2.297668,1.8498991 -0.197403,0.261488 -0.25038,0.356677 -0.258129,0.46381 -0.01002,0.138481 0.02509,0.171057 0.11607,0.107686 z m 21.919999,-3.2e-5 c 0.02694,-0.01878 0.08859,-0.08114 0.13699,-0.138568 0.319549,-0.379159 0.4226,-0.492436 0.702715,-0.772438 0.172307,-0.172237 0.381685,-0.365993 0.465285,-0.430568 0.501717,-0.3875435 1.033792,-0.6550138 1.976,-0.9933186 0.613848,-0.2204056 0.693214,-0.2762022 0.56923,-0.4001857 -0.04433,-0.044322 -0.05384,-0.046764 -0.182238,-0.046764 -0.415208,0 -1.041298,0.2256666 -1.669603,0.6017893 -0.777783,0.4656032 -1.401423,1.006018 -1.85632,1.60859 -0.197403,0.261488 -0.250379,0.356677 -0.25813,0.46381 -0.01002,0.138492 0.02511,0.171071 0.116071,0.107659 z m 9.531086,-0.859202 C 43.767551,10.452529 43.416533,10.118088 43.224706,9.9583309 43.022631,9.7900381 42.738135,9.584292 42.508424,9.4403173 42.291917,9.3046192 41.849591,9.0785368 41.602026,8.9770386 41.246621,8.8313272 40.580978,8.629073 40.552047,8.6580045 c -0.0043,0.00428 1.92e-4,0.032497 0.0099,0.062715 0.0097,0.030217 0.02222,0.115778 0.02773,0.1901352 l 0.01005,0.1351944 0.144,0.028149 c 1.048554,0.2049693 2.012918,0.6476346 2.815928,1.2925739 0.19789,0.158936 0.307997,0.240887 0.32365,0.240887 0.0039,0 -0.01476,-0.02761 -0.04148,-0.06135 z M 22.737346,10.227664 c 0.224141,-0.2405688 0.551288,-0.5547574 0.710379,-0.6822374 0.459235,-0.3679871 1.22223,-0.81542 1.965896,-1.1528341 0.502954,-0.228199 0.90927,-0.3875138 1.682104,-0.659545 0.691096,-0.2432601 0.795914,-0.2930632 0.804754,-0.3823723 0.0035,-0.035037 -0.0066,-0.058678 -0.03722,-0.087451 -0.09992,-0.09386 -0.516326,-0.04575 -1.063534,0.1228807 -0.698694,0.2153178 -1.868752,0.7616669 -2.606622,1.2171424 -0.687684,0.4244952 -1.220586,0.8847517 -1.5266,1.318492 -0.08228,0.1166157 -0.122778,0.2138087 -0.122778,0.2946287 0,0.07977 0.0145,0.103297 0.06366,0.103297 0.03325,0 0.06553,-0.02285 0.129957,-0.092 z m -1.133149,0.056 c 0.01719,-0.04816 -0.06432,-0.14497 -0.191549,-0.227513 -0.07256,-0.04707 -0.100923,-0.04323 -0.100923,0.01367 0,0.04171 0.03408,0.07609 0.166653,0.168131 0.102819,0.07138 0.115069,0.07583 0.125819,0.04571 z m 0.60371,-0.7093033 c 0.1451,-0.1459172 0.34982,-0.3377962 0.454933,-0.4263978 1.268781,-1.0694762 3.218829,-2.0471789 5.128885,-2.5714879 0.487648,-0.133859 0.580637,-0.161507 0.572058,-0.170087 -0.01544,-0.01544 -0.633901,0.126118 -1.12216,0.256856 -1.037042,0.277682 -1.919808,0.612704 -2.873898,1.0906803 -0.52783,0.2644306 -0.861942,0.4562556 -1.288,0.7394821 -0.500494,0.3327091 -0.921056,0.6606117 -1.268,0.9886309 -0.147602,0.1395507 -0.149912,0.1634226 -0.02671,0.2760218 0.05022,0.045898 0.104556,0.081605 0.124182,0.081605 0.02385,0 0.118406,-0.083985 0.29871,-0.2653034 z m -1.265344,0.191146 c 0.01824,-0.023187 0.03316,-0.047229 0.03316,-0.053428 0,-0.017977 -0.243082,-0.1880811 -0.429206,-0.3003519 -0.378232,-0.2281507 -0.863943,-0.4475544 -1.338794,-0.6047571 -0.290051,-0.096023 -0.559019,-0.16562 -0.575678,-0.14896 -0.0043,0.00428 2.08e-4,0.032497 0.0099,0.062715 0.0097,0.030217 0.02222,0.1156525 0.02773,0.1898561 l 0.01005,0.1349155 0.208,0.043315 c 0.609245,0.1268732 1.170136,0.3221013 1.676347,0.5834831 0.14281,0.073739 0.27893,0.1343635 0.302491,0.1347206 0.02774,4.208e-4 0.05453,-0.014213 0.076,-0.041508 z M 77.543725,22.644469 c -0.141043,-0.01281 -0.462629,-0.07265 -0.59188,-0.110117 -0.686085,-0.198902 -1.290819,-0.736909 -1.761005,-1.566688 -0.342709,-0.604811 -0.619725,-1.3834 -0.856745,-2.408 -0.168295,-0.727506 -0.37282,-2.000734 -0.462629,-2.88 -0.01843,-0.1804 -0.03708,-0.34516 -0.04146,-0.366133 -0.0067,-0.03199 -0.03316,2.54e-4 -0.164316,0.2 -0.187808,0.286031 -0.334844,0.435425 -0.516144,0.524424 -0.146936,0.07213 -0.240938,0.0899 -0.412375,0.07796 l -0.134557,-0.0094 0.01104,0.142557 c 0.0204,0.263269 0.05266,0.90349 0.09183,1.822557 0.01944,0.456147 0.01214,0.782093 -0.01967,0.87776 -0.03181,0.09567 -0.09773,0.15743 -0.161494,0.151298 -0.04446,-0.0043 -0.05806,-0.01619 -0.08797,-0.07706 -0.06681,-0.13597 -0.07178,-0.274326 -0.05954,-1.656781 0.01177,-1.328472 0.01043,-1.367182 -0.04743,-1.367182 -0.01167,0 -0.06967,0.02197 -0.128874,0.04881 -0.556645,0.252395 -1.152178,-0.119501 -1.926717,-1.203189 -0.06713,-0.09393 -0.124806,-0.168071 -0.128163,-0.164763 -0.0034,0.0033 -0.01637,0.07647 -0.02892,0.162578 -0.07195,0.49362 -0.250987,1.242745 -0.411869,1.723297 -0.26097,0.779508 -0.563296,1.307292 -0.973366,1.69925 -0.331316,0.31668 -0.75604,0.528264 -1.211738,0.603648 -0.255986,0.04235 -0.549763,0.05076 -0.674427,0.01933 -0.05854,-0.01476 -0.141335,-0.02462 -0.184,-0.0219 l -0.07757,0.0049 -0.01807,0.144 c -0.03401,0.270986 -0.08691,0.395558 -0.227787,0.536398 -0.141803,0.141767 -0.439318,0.270095 -0.629035,0.271324 -0.03346,2.24e-4 -0.06648,0.02755 -0.150093,0.124278 -0.213821,0.247342 -0.460521,0.35548 -0.764672,0.335184 l -0.125662,-0.0084 0.01017,0.2746 c 0.02222,0.600218 0.01917,0.876112 -0.01078,0.97284 -0.03482,0.112466 -0.103124,0.189762 -0.167696,0.189762 -0.0483,0 -0.101316,-0.04461 -0.123616,-0.104 -0.02758,-0.07345 -0.0556,-0.558466 -0.05686,-0.984 -9.44e-4,-0.319554 -0.0071,-0.46839 -0.02062,-0.497408 -0.0106,-0.02277 -0.05491,-0.08887 -0.09846,-0.146886 -0.09047,-0.120527 -0.130553,-0.208 -0.672542,-1.467706 -0.21392,-0.4972 -0.487194,-1.12 -0.607275,-1.384 -0.327872,-0.720832 -0.86049,-1.830402 -0.898485,-1.871764 -0.03288,-0.0358 -0.04199,-0.03666 -0.512,-0.04864 -0.521093,-0.01328 -1.558907,-0.0012 -2.14252,0.025 -0.467742,0.02098 -1.157234,0.07131 -1.17144,0.08551 -0.01263,0.01263 0.01888,0.87787 0.05106,1.401894 0.05288,0.861104 0.06241,1.08961 0.06336,1.52 0.0011,0.501667 -0.0083,0.57181 -0.08869,0.657821 -0.03565,0.03816 -0.05615,0.04723 -0.09771,0.04324 -0.04454,-0.0043 -0.05795,-0.01609 -0.08757,-0.07706 -0.06631,-0.13648 -0.07041,-0.272976 -0.05875,-1.953928 l 0.011,-1.585296 -0.126635,0.01088 c -0.06965,0.006 -0.138132,0.01404 -0.152184,0.01791 -0.02766,0.0076 -0.03163,0.05952 -0.06282,0.822431 -0.04633,1.133211 -0.1512,1.772874 -0.354837,2.164288 -0.147694,0.283959 -0.419462,0.459767 -0.710627,0.459767 -0.09677,0 -0.118478,0.01405 -0.22184,0.143598 -0.109176,0.136834 -0.260858,0.247194 -0.412864,0.300396 -0.153646,0.05377 -0.368949,0.05616 -0.525854,0.0058 -0.253436,-0.08129 -0.4463,-0.274915 -0.54429,-0.546441 -0.03673,-0.101775 -0.0373,-0.113131 -0.03662,-0.727389 3.84e-4,-0.3432 0.01023,-0.794794 0.02189,-1.003541 0.01166,-0.208749 0.01682,-0.390931 0.01148,-0.404851 -0.0065,-0.01699 -0.03478,0.02362 -0.08598,0.123542 -0.260572,0.508536 -0.474789,0.672524 -0.876082,0.670655 -0.473805,-0.0022 -0.787976,-0.288984 -0.855306,-0.78073 -0.01934,-0.141224 0.0078,-0.479117 0.05466,-0.680245 0.03248,-0.13945 0.112508,-0.365444 0.169256,-0.477959 0.123219,-0.244311 0.363289,-0.54026 0.586139,-0.722569 0.291209,-0.238233 0.748921,-0.493899 1.16884,-0.652881 0.09877,-0.0374 0.190433,-0.07997 0.203686,-0.09462 0.01325,-0.01464 0.07137,-0.217016 0.129152,-0.449714 0.305898,-1.231919 0.543336,-1.922631 0.893458,-2.599088 0.435649,-0.841705 0.920077,-1.3487517 1.460633,-1.5288382 0.124477,-0.04147 0.170836,-0.067453 0.288877,-0.161912 0.242954,-0.1944165 0.467915,-0.3086781 0.703573,-0.3573543 0.208669,-0.043102 0.551458,0.011108 0.909032,0.1437581 0.88481,0.3282386 1.948949,1.2979384 3.055515,2.7843464 0.192285,0.25829 0.766683,1.081187 1.027536,1.472074 0.08812,0.132041 0.171058,0.249078 0.184317,0.260082 0.03014,0.02501 0.09013,0.03588 0.644632,0.116809 0.763811,0.111474 1.297008,0.223105 1.904,0.398625 0.599782,0.173435 0.774827,0.251987 0.939706,0.421698 0.06926,0.07129 0.110171,0.102983 0.114609,0.08879 0.0251,-0.08025 0.132352,-0.841723 0.185099,-1.314146 0.08074,-0.723101 0.10782,-1.028593 0.135812,-1.531929 0.131699,-2.3680291 0.198804,-3.0097366 0.35639,-3.4079995 0.07829,-0.197852 0.220176,-0.3521824 0.40947,-0.4453715 0.254263,-0.1251736 0.464333,-0.1214647 0.771949,0.013629 l 0.08103,0.035588 0.13442,-0.059101 c 0.185892,-0.081733 0.346758,-0.1025763 0.51951,-0.067314 0.313378,0.063966 0.539352,0.2589565 0.641926,0.5539064 0.03257,0.093671 0.04143,0.1617391 0.05465,0.4202199 0.0464,0.9071651 0.197568,1.5592987 0.57034,2.4604427 0.288657,0.697811 0.730475,1.463455 0.986926,1.710287 l 0.0564,0.05429 0.0086,-0.03829 c 0.02471,-0.109754 0.04755,-0.543159 0.08974,-1.702287 0.02415,-0.663479 0.06046,-0.969334 0.159792,-1.3459347 0.134376,-0.509457 0.334963,-0.7634602 0.695606,-0.8808482 0.103798,-0.033786 0.158251,-0.041581 0.288,-0.041225 0.09282,2.544e-4 0.19359,0.010342 0.24,0.024026 0.2378,0.070116 0.219136,0.068451 0.34625,0.030883 0.355198,-0.1049765 0.683702,-0.071753 0.912828,0.09232 0.170407,0.1220257 0.301018,0.3436057 0.341479,0.579316 0.0126,0.073405 0.05951,0.4394629 0.104235,0.8134629 0.400642,3.349932 0.92031,6.090208 1.482238,7.816 0.27217,0.835891 0.629274,1.576758 0.94805,1.966874 0.210614,0.257748 0.386016,0.389105 0.676347,0.506512 0.226202,0.09147 0.392842,0.191222 0.527085,0.315508 0.279034,0.258335 0.385315,0.601132 0.298606,0.963106 -0.06625,0.27656 -0.269355,0.478066 -0.558924,0.55452 -0.116376,0.03073 -0.548296,0.0351 -0.73877,0.0075 -0.07893,-0.01145 -0.168483,-0.0096 -0.328,0.0067 -0.120683,0.01232 -0.233824,0.02141 -0.251424,0.02019 -0.0176,-0.0012 -0.0608,-0.0048 -0.096,-0.008 z m 1.28061,-0.506655 c 0.104187,-0.04852 0.208326,-0.166539 0.239464,-0.271392 0.03018,-0.101616 0.03008,-0.147004 -5.28e-4,-0.236804 -0.03505,-0.10288 -0.105882,-0.180557 -0.231565,-0.25396 -0.127103,-0.07423 -0.512051,-0.245266 -0.524347,-0.232968 -0.0046,0.0046 0.01253,0.03787 0.03802,0.07398 0.241624,0.342332 0.277816,0.53608 0.172416,0.922994 -0.0095,0.03497 -0.0064,0.03599 0.108059,0.03584 0.08985,-1.6e-4 0.137024,-0.0091 0.198476,-0.03769 z m -0.955517,-1.31815 c -0.318967,-0.374211 -0.393539,-0.473984 -0.543547,-0.72723 -0.354999,-0.599316 -0.653503,-1.401165 -0.989324,-2.657549 -0.347644,-1.300626 -0.615622,-2.680249 -0.918988,-4.731221 -0.07189,-0.485997 -0.28325,-2.115887 -0.345466,-2.664 -0.01798,-0.1583995 -0.03999,-0.3150941 -0.0489,-0.3482096 -0.02326,-0.086374 -0.103893,-0.1698486 -0.21472,-0.2222797 -0.07988,-0.037791 -0.117122,-0.045487 -0.220146,-0.045498 -0.0682,-6.8e-6 -0.124,0.00408 -0.124,0.00909 0,0.00501 0.01732,0.078805 0.03848,0.164 0.02117,0.085195 0.05413,0.2916995 0.07324,0.4588993 0.01911,0.1672 0.08758,0.718 0.152144,1.224 0.0971,0.76094 0.124439,0.938454 0.158149,1.026735 0.03374,0.08836 0.05597,0.232945 0.129142,0.84 0.108372,0.899083 0.171285,1.291382 0.362639,2.261265 0.279765,1.417992 0.632072,2.719208 0.956729,3.53361 0.395842,0.99296 0.79013,1.554424 1.257466,1.790619 0.107226,0.05419 0.255906,0.113974 0.286488,0.115193 0.008,3.2e-4 0.0037,-0.01202 -0.0094,-0.02742 z m -11.954043,-1.51653 c 0.04879,-0.02431 0.0985,-0.0653 0.124238,-0.102443 0.04524,-0.06527 0.08871,-0.188566 0.08871,-0.251569 0,-0.0326 -0.0078,-0.03747 -0.06,-0.03755 -0.111874,-1.76e-4 -0.243621,-0.03005 -0.382934,-0.08685 -0.07637,-0.03113 -0.141135,-0.05432 -0.143928,-0.05153 -0.0028,0.0028 0.0239,0.0719 0.05932,0.153574 0.05779,0.133253 0.09278,0.242686 0.119216,0.372896 0.0076,0.03726 0.01699,0.044 0.06149,0.044 0.0289,0 0.08915,-0.01824 0.133887,-0.04053 z m 1.894804,-0.981356 c 0.258264,-0.08885 0.510661,-0.271135 0.752962,-0.543783 0.409323,-0.460589 0.803197,-1.42371 1.01189,-2.474331 0.06573,-0.330897 0.185313,-1.126823 0.185102,-1.231996 -1.6e-4,-0.07517 -0.0095,-0.111633 -0.04292,-0.168004 -0.0235,-0.0396 -0.108819,-0.200716 -0.189605,-0.358036 -0.08281,-0.161253 -0.151802,-0.278077 -0.158157,-0.267794 -0.0062,0.01003 -0.03939,0.241676 -0.07376,0.514763 -0.146817,1.166704 -0.330329,2.103484 -0.536259,2.737475 -0.225222,0.693384 -0.537982,1.259173 -0.909661,1.645592 -0.185689,0.193054 -0.186683,0.196718 -0.0396,0.146114 z m -11.097854,-0.01571 c 0.165472,-0.101629 0.280902,-0.335766 0.336096,-0.681731 0.0388,-0.243181 0.05454,-0.415599 0.09609,-1.05225 0.02198,-0.33683 0.04812,-0.729633 0.05808,-0.872894 0.01,-0.143261 0.01429,-0.264307 0.0096,-0.268992 -0.0088,-0.0088 -0.253499,0.02096 -0.291035,0.03536 -0.04325,0.0166 -0.0787,0.295855 -0.111717,0.880003 -0.05505,0.974012 -0.103792,1.584766 -0.144771,1.814102 -0.03545,0.198406 -0.03571,0.197603 0.04766,0.1464 z m 8.504178,-0.6328 c 0.03624,-0.08712 0.09491,-0.201136 0.13038,-0.253368 0.05636,-0.08299 0.06312,-0.102362 0.05365,-0.153598 -0.01607,-0.08686 -0.819675,-1.665893 -0.923227,-1.814072 -0.01698,-0.02431 -0.05648,-0.05084 -0.08967,-0.06024 -0.06619,-0.01875 -0.50723,-0.06861 -0.540579,-0.06112 -0.01403,0.0032 0.08017,0.190752 0.275597,0.548793 0.271485,0.497398 0.961837,1.852304 0.98929,1.941611 0.01599,0.05203 0.02902,0.03359 0.10456,-0.148011 z m 1.00431,-0.579491 c 0.233363,-0.06065 0.448722,-0.246464 0.629554,-0.543202 0.123732,-0.203041 0.337918,-0.69628 0.313121,-0.721076 -0.0057,-0.0057 -0.06453,0.009 -0.130827,0.0325 -0.269349,0.09562 -0.388045,0.08974 -0.784336,-0.03884 -0.591515,-0.191921 -1.157374,-0.344418 -1.181942,-0.318529 -0.0037,0.0039 0.113164,0.248896 0.259633,0.544509 0.146471,0.295613 0.323909,0.661291 0.394309,0.812621 l 0.128,0.275145 0.144,-0.01059 c 0.0792,-0.0058 0.182019,-0.02047 0.228488,-0.03254 z m 6.776267,-1.483717 c 0.130632,-0.07725 0.269026,-0.25787 0.377514,-0.492707 0.08206,-0.177637 0.215341,-0.566171 0.27311,-0.796179 l 0.04659,-0.185506 -0.02823,-0.323912 c -0.01553,-0.178152 -0.03212,-0.327797 -0.03687,-0.332546 -0.01048,-0.01048 -0.246131,0.163764 -0.297875,0.220256 -0.02689,0.02936 -0.04942,0.09664 -0.08246,0.246298 -0.06603,0.299039 -0.10304,0.437352 -0.185864,0.694572 -0.07684,0.238637 -0.24396,0.641718 -0.334722,0.807332 -0.08194,0.149522 -0.08357,0.164359 -0.02112,0.192634 0.07406,0.03353 0.205219,0.01985 0.289923,-0.03024 z M 56.008901,13.247509 c 0.619291,-1.656061 0.780902,-2.171213 0.733259,-2.337339 -0.01958,-0.06829 -0.03994,-0.07264 -0.100681,-0.02153 -0.133932,0.112695 -0.396335,0.709627 -0.646644,1.47102 -0.180979,0.550504 -0.291057,1.067337 -0.261211,1.226425 0.01244,0.0663 0.0715,0.150571 0.09152,0.130561 0.0073,-0.0073 0.09,-0.218426 0.183762,-0.469141 z m 1.374824,0.272049 c 0.0787,-6.3e-4 0.09033,-0.0188 0.113854,-0.177981 0.05871,-0.397203 0.237946,-1.106609 0.40546,-1.604764 0.04417,-0.131368 0.07781,-0.241359 0.07475,-0.244424 -0.01014,-0.01014 -0.131595,0.161182 -0.206673,0.291535 -0.233149,0.404804 -0.463199,1.062129 -0.595728,1.702183 l -0.01127,0.05444 0.08581,-0.0103 c 0.0472,-0.0057 0.107408,-0.01048 0.133808,-0.01069 z m 5.905379,-0.09323 c -0.06681,-0.129189 -0.591971,-0.877949 -0.910857,-1.298664 -0.466799,-0.615861 -0.846733,-1.060896 -1.258013,-1.473567 -0.789263,-0.7919335 -1.456712,-1.2301763 -2.021528,-1.3273218 -0.159864,-0.027496 -0.405927,-0.014352 -0.473839,0.02531 -0.02974,0.017369 -0.05186,0.038779 -0.04916,0.047579 0.0027,0.0088 0.06681,0.038159 0.142464,0.065242 0.325818,0.1166345 0.702458,0.3388461 1.121557,0.6616978 0.1276,0.0983 0.295126,0.21209 0.37228,0.252873 0.392693,0.207578 0.860917,0.652954 1.291194,1.228187 0.151988,0.203192 0.78214,1.158417 1.031249,1.563233 0.06879,0.111779 0.139223,0.216047 0.156527,0.231708 0.0374,0.03384 0.251441,0.0642 0.473161,0.06711 l 0.148411,0.0019 z m -4.649379,-0.0035 c 0.420693,-0.02776 1.118747,-0.04668 1.732,-0.04693 0.3322,-1.44e-4 0.604,-0.0041 0.604,-0.0089 0,-0.03971 -0.255182,-0.436541 -0.493456,-0.767363 -0.279624,-0.388233 -0.699472,-0.855922 -0.954544,-1.063312 -0.238462,-0.193886 -0.448376,-0.311042 -0.652443,-0.36414 -0.14793,-0.03849 -0.167968,-0.02537 -0.285741,0.187153 -0.169091,0.30512 -0.357701,0.834258 -0.500459,1.404024 -0.05513,0.220016 -0.137357,0.621379 -0.137357,0.670431 0,0.02799 0.128746,0.02594 0.688,-0.01097 z m 13.372163,-0.147185 c -0.390395,-0.512185 -0.570472,-0.797069 -0.81163,-1.284 -0.187586,-0.378763 -0.330815,-0.726001 -0.465277,-1.128 -0.25384,-0.7589 -0.362501,-1.3317062 -0.397606,-2.0959995 -0.01344,-0.2926582 -0.03224,-0.355581 -0.131085,-0.4387522 -0.101165,-0.085125 -0.173959,-0.1124952 -0.298421,-0.112206 -0.06372,1.44e-4 -0.123534,0.00795 -0.132922,0.017336 -0.01209,0.012089 -0.0071,0.056038 0.01705,0.1506853 0.02593,0.1015734 0.03742,0.2143579 0.0479,0.4702779 0.01998,0.4878928 0.0689,0.8176186 0.194774,1.3126585 0.154599,0.608016 0.39737,1.223504 0.700522,1.776 0.428757,0.781412 0.81216,1.216388 1.192531,1.352942 0.117618,0.04223 0.129968,0.03915 0.08416,-0.02094 z m -3.670088,0.01384 c 0.11149,-0.04658 0.172463,-0.223651 0.218259,-0.633836 0.02654,-0.237752 0.02074,-1.473873 -0.0086,-1.821467 -0.02541,-0.301538 -0.05084,-0.406203 -0.105854,-0.435644 -0.03665,-0.01961 -0.04858,0.0059 -0.08393,0.179664 -0.03887,0.191004 -0.09204,1.047564 -0.138369,2.229315 l -0.01756,0.447868 0.03474,0.02813 c 0.04166,0.03373 0.03567,0.03338 0.101272,0.006 z"
       id="path837" />
  </g>
</svg>
